HIERARCHY
ROOT root
{
	OFFSET 0.000000 0.000000 0.000000
	CHANNELS 6 Xposition Yposition Zposition Zrotation Yrotation Xrotation
	JOINT lhip
	{
		OFFSET 0.058581 -0.082280 -0.017664
		CHANNELS 3 Zrotation Yrotation Xrotation
		JOINT lknee
		{
			OFFSET 0.043451 -0.386469 0.008037
			CHANNELS 3 Zrotation Yrotation Xrotation
			JOINT lankle
			{
				OFFSET -0.014790 -0.426874 -0.037428
				CHANNELS 3 Zrotation Yrotation Xrotation
				JOINT ltoe
				{
					OFFSET 0.041054 -0.060286 0.122042
					CHANNELS 3 Zrotation Yrotation Xrotation
					End Site
					{
						OFFSET 0.000000 0.000000 0.000000
					}
				}
			}
		}
	}
	JOINT rhip
	{
		OFFSET -0.060310 -0.090513 -0.013543
		CHANNELS 3 Zrotation Yrotation Xrotation
		JOINT rknee
		{
			OFFSET -0.043257 -0.383688 -0.004843
			CHANNELS 3 Zrotation Yrotation Xrotation
			JOINT rankle
			{
				OFFSET 0.019056 -0.420046 -0.034562
				CHANNELS 3 Zrotation Yrotation Xrotation
				JOINT rtoe
				{
					OFFSET -0.034840 -0.062106 0.130323
					CHANNELS 3 Zrotation Yrotation Xrotation
					End Site
					{
						OFFSET 0.000000 0.000000 0.000000
					}
				}
			}
		}
	}
	JOINT lowerback
	{
		OFFSET 0.004439 0.124404 -0.038385
		CHANNELS 3 Zrotation Yrotation Xrotation
		JOINT upperback
		{
			OFFSET 0.004488 0.137956 0.026820
			CHANNELS 3 Zrotation Yrotation Xrotation
			JOINT chest
			{
				OFFSET -0.002265 0.056032 0.002855
				CHANNELS 3 Zrotation Yrotation Xrotation
				JOINT lowerneck
				{
					OFFSET -0.013390 0.211636 -0.033468
					CHANNELS 3 Zrotation Yrotation Xrotation
					JOINT upperneck
					{
						OFFSET 0.010113 0.088937 0.050410
						CHANNELS 3 Zrotation Yrotation Xrotation
						End Site
						{
							OFFSET 0.000000 0.000000 0.000000
						}
					}
				}
				JOINT lclavicle
				{
					OFFSET 0.071702 0.114000 -0.018898
					CHANNELS 3 Zrotation Yrotation Xrotation
					JOINT lshoulder
					{
						OFFSET 0.122921 0.045205 -0.019046
						CHANNELS 3 Zrotation Yrotation Xrotation
						JOINT lelbow
						{
							OFFSET 0.255332 -0.015649 -0.022946
							CHANNELS 3 Zrotation Yrotation Xrotation
							JOINT lwrist
							{
								OFFSET 0.265709 0.012698 -0.007375
								CHANNELS 3 Zrotation Yrotation Xrotation
								End Site
								{
									OFFSET 0.000000 0.000000 0.000000
								}
							}
						}
					}
				}
				JOINT rclavicle
				{
					OFFSET -0.082954 0.112472 -0.023707
					CHANNELS 3 Zrotation Yrotation Xrotation
					JOINT rshoulder
					{
						OFFSET -0.113228 0.046853 -0.008472
						CHANNELS 3 Zrotation Yrotation Xrotation
						JOINT relbow
						{
							OFFSET -0.260127 -0.014369 -0.031269
							CHANNELS 3 Zrotation Yrotation Xrotation
							JOINT rwrist
							{
								OFFSET -0.269108 0.006794 -0.006027
								CHANNELS 3 Zrotation Yrotation Xrotation
								End Site
								{
									OFFSET 0.000000 0.000000 0.000000
								}
							}
						}
					}
				}
			}
		}
	}
}
MOTION
Frames: 11
Frame Time: 0.033333
0.727403 1.740097 0.968230 -100.202701 -2.359317 92.592413 1.722038 -8.954611 -39.580014 -5.700884 10.983427 22.291500 5.295841 9.444161 6.258822 0.000000 -0.000000 0.000000 -2.744601 -5.779767 11.257084 3.898354 0.108207 20.083415 5.438269 -2.554490 -10.125255 0.000000 -0.000000 0.000000 -1.742920 9.309052 12.684298 0.603994 -2.525150 -3.075689 -1.003007 3.338606 -2.440371 -2.798463 8.687484 7.643128 1.856753 6.642577 7.692480 -21.297937 2.356905 2.023409 -56.841836 -5.440761 7.569449 16.167302 -17.625286 1.682536 7.735614 -3.704364 -8.872229 20.850994 0.616700 5.759509 56.656226 6.030841 13.433260 -8.873160 20.161739 11.914828 2.200201 2.494139 -4.678408 
0.693374 1.739785 0.972366 -99.548634 -2.475560 91.941183 0.377547 -8.963941 -37.600015 -6.552536 9.809619 24.753906 6.418318 9.847295 3.671650 0.000000 -0.000000 0.000000 -3.816133 -5.755910 11.094887 4.243763 0.035110 25.091360 7.628291 -2.249820 -3.527965 0.000000 -0.000000 0.000000 -1.300624 8.986267 12.478392 0.720502 -2.630837 -3.144208 -1.099755 3.093963 -2.177219 -2.829805 8.153399 7.561768 1.561260 7.357834 8.852953 -21.959682 1.954159 2.135570 -55.986057 -5.216978 7.193037 15.636956 -18.498146 1.707314 7.472085 -4.022182 -8.182671 20.991037 0.497568 5.664954 56.265822 5.327400 13.266850 -9.353075 20.132928 10.538987 2.895086 2.314698 -4.472797 
0.660289 1.739530 0.978083 -98.650363 -2.772636 91.044703 -1.956319 -8.474085 -33.358322 -6.911341 8.049462 23.949469 8.002793 9.777660 1.527798 0.000000 -0.000000 0.000000 -5.520075 -5.682028 9.155694 4.817578 -1.348225 32.755730 9.599586 -2.248659 5.630183 0.000000 -0.000000 0.000000 -1.263364 8.057245 12.742310 0.930921 -2.478349 -3.299786 -1.052072 2.889249 -2.051208 -2.706568 7.197145 8.194814 1.122369 8.382800 9.417805 -22.415495 1.724659 2.233509 -55.129843 -5.591826 7.080400 14.930652 -18.586236 1.416865 7.788727 -4.865494 -7.725183 21.288246 -0.050909 5.215057 55.856015 5.168883 13.186458 -10.157220 19.635464 8.347256 3.329192 2.484061 -3.463384 
0.628786 1.739096 0.984294 -97.878913 -3.236606 90.453002 -3.793953 -8.889386 -28.875828 -6.780950 7.151175 21.841654 7.566540 9.769852 -0.272741 0.000000 -0.000000 0.000000 -7.369329 -5.217608 4.883454 4.289475 -3.921543 42.507325 12.660958 -3.221182 14.983634 0.000000 -0.000000 0.000000 -2.086425 7.212003 12.045857 1.400240 -2.355562 -1.868270 -0.532984 2.903430 -2.973328 -2.637612 6.042659 10.020453 0.481624 9.374330 8.749158 -21.972688 -0.088793 3.501137 -55.709221 -6.128227 4.560430 15.043400 -18.076552 -1.042050 6.521578 -6.539259 -3.378201 20.461076 0.461420 4.662229 56.204412 3.916581 11.774470 -10.715785 20.200367 5.777322 3.703206 1.487924 -2.419970 
0.598829 1.739292 0.989682 -97.320974 -3.358807 89.145769 -5.501603 -9.084121 -23.383829 -6.999567 5.000861 18.939799 8.610292 11.452560 -0.979376 0.000000 -0.000000 0.000000 -8.776691 -4.559439 0.697251 3.931926 -6.046368 51.488395 11.945957 -5.745429 22.339970 0.000000 -0.000000 0.000000 -2.105514 5.857965 12.973733 1.491970 -1.983735 -1.903376 -0.213554 2.722758 -2.720640 -2.857555 5.346057 10.811700 0.270357 10.579704 8.165446 -21.814296 -0.910798 3.950525 -55.489952 -6.230638 4.034190 15.563649 -19.112808 -2.202861 6.600326 -5.981331 -1.856799 20.051089 0.922871 4.036471 56.482217 3.318858 11.912188 -11.690162 20.723498 3.770215 4.008134 1.046318 -2.148300 
0.572302 1.741036 0.993452 -96.909766 -3.069621 87.833040 -6.353826 -8.641402 -18.944111 -7.338417 2.471082 17.494493 8.429480 13.035269 -2.235577 0.000000 -0.000000 0.000000 -9.710099 -4.206472 -4.486430 1.601490 -9.048048 59.947446 10.809482 -8.562956 19.897718 0.000000 -0.000000 0.000000 -1.707000 4.434205 14.691965 1.501466 -1.419401 -2.487484 0.111977 2.193865 -2.311695 -2.726039 5.507345 10.699547 -0.316206 11.092128 8.170473 -21.973478 -1.785003 4.151238 -54.844962 -6.274689 3.351418 16.164018 -20.864524 -3.722904 5.439752 -5.460120 -1.778093 19.880507 1.692908 3.801995 56.266884 2.957509 11.567523 -12.441783 22.000099 1.790076 4.996977 0.932259 -2.975165 
0.548714 1.743417 0.996534 -96.539956 -2.820425 87.115698 -7.276378 -7.794138 -15.513202 -6.881260 0.345133 16.527233 8.190725 13.913046 -3.653386 0.000000 -0.000000 0.000000 -9.932286 -4.133692 -11.057215 -0.753692 -10.983749 66.168068 9.173242 -9.921055 12.528196 0.000000 -0.000000 0.000000 -1.304121 3.052854 16.226244 1.357313 -0.749337 -3.052298 0.106959 1.747894 -2.279760 -2.183381 6.160172 10.323479 -0.830651 10.719606 8.505131 -21.798189 -2.268903 4.087803 -54.078403 -6.934830 3.202498 16.647802 -22.146070 -4.166425 4.600679 -5.293809 -2.152439 20.011666 2.072769 3.884477 56.050423 3.010037 11.175570 -12.516989 23.059966 1.170080 4.887568 1.240228 -3.468587 
0.525244 1.746692 0.999284 -96.119782 -2.543706 86.525138 -7.601834 -6.215403 -12.230370 -6.860088 -1.678766 15.423918 7.229753 13.922124 -4.956490 0.000000 -0.000000 0.000000 -9.682397 -3.885128 -17.427150 -1.916107 -12.464983 68.592716 8.423028 -9.435256 4.380216 0.000000 -0.000000 0.000000 -1.035040 1.729371 17.476192 1.160931 -0.154050 -3.309729 0.189910 1.366536 -2.421119 -1.735805 7.104340 10.539488 -1.181751 10.142815 8.263350 -21.814048 -2.807633 3.800114 -53.229860 -7.501776 2.987932 17.273853 -23.459496 -5.498519 4.256946 -5.452890 -1.566400 20.165590 2.350724 3.882927 55.992775 3.042787 10.474309 -12.216008 23.733923 1.114239 4.319003 1.428881 -2.402608 
0.501702 1.750877 1.001288 -95.705550 -2.195064 86.097208 -7.508021 -4.741134 -8.935912 -6.819902 -3.732574 13.825003 6.224912 14.071591 -6.057956 0.000000 -0.000000 0.000000 -9.050547 -3.363079 -23.295876 -2.102651 -13.838957 66.998319 8.337210 -8.983987 -0.500209 0.000000 -0.000000 0.000000 -1.060378 0.373086 18.269364 1.118683 0.395412 -3.379741 0.459106 1.232655 -2.431399 -1.481701 7.686182 10.888759 -1.365963 9.536501 7.812281 -21.964783 -2.925903 3.504576 -52.532989 -8.319525 3.058246 18.034554 -25.195319 -6.789419 3.908127 -5.178694 -1.315603 20.336033 2.294280 4.213831 55.883620 3.325650 10.180703 -12.043057 24.249322 1.543876 4.431809 1.212984 -1.687319 
0.477339 1.755161 1.002706 -95.306764 -1.966499 85.520422 -7.099385 -2.562396 -5.689902 -7.291622 -5.838147 12.866469 5.271368 13.426001 -7.370011 0.000000 -0.000000 0.000000 -8.371943 -3.202265 -27.798678 -2.052541 -14.610947 62.022714 8.455927 -9.284926 -3.090730 0.000000 -0.000000 0.000000 -1.016672 -0.816409 19.294661 0.659163 0.948226 -3.866947 0.897295 0.727385 -2.122163 -2.091369 7.612834 10.625322 -1.092732 10.563168 7.544667 -21.930581 -2.646902 2.822052 -52.375399 -8.899699 2.909197 18.476846 -27.249459 -7.749561 5.808789 -5.592547 -0.420348 20.285041 2.626424 4.208510 55.904231 3.157205 9.968025 -11.475055 24.217363 1.532057 4.232009 1.273648 -0.456212 
0.453071 1.759881 1.003224 -94.877607 -1.599145 85.256244 -7.023143 -1.697419 -2.436431 -6.472049 -7.507904 11.131623 5.181340 14.289728 -8.959907 0.000000 -0.000000 0.000000 -7.740232 -2.558177 -31.112413 -1.887819 -15.510660 53.864544 8.764502 -9.815505 -3.722951 0.000000 -0.000000 0.000000 -1.079913 -1.849735 19.787001 0.479944 1.346530 -4.367052 1.236586 0.660590 -1.650071 -1.908225 7.546670 10.419570 -0.838840 10.369251 7.662942 -21.877009 -2.404222 2.716656 -52.042937 -9.863142 3.702365 18.745722 -29.020996 -7.748264 6.247664 -6.163555 -1.249591 20.558126 2.429875 4.350883 55.642687 2.868209 10.415123 -11.307723 24.219272 1.762894 3.922025 1.237265 -0.763355 
